<mxfile host="app.diagrams.net" modified="2021-09-20T07:06:17.731Z" agent="5.0 (Windows NT 10.0; Win64; x64) AppleWebKit/537.36 (KHTML, like Gecko) Chrome/93.0.4577.82 Safari/537.36" etag="ta8RxJquwxriaNcQSqPO" version="15.2.1" type="github">
  <diagram id="F3Oq2SdxqIKDGbHoNa_y" name="Page-1">
    <mxGraphModel dx="1021" dy="529" grid="1" gridSize="10" guides="1" tooltips="1" connect="1" arrows="1" fold="1" page="1" pageScale="1" pageWidth="827" pageHeight="1169" math="0" shadow="0">
      <root>
        <mxCell id="0" />
        <mxCell id="1" parent="0" />
        <mxCell id="UUQHCcC1c7Up3ryjeAP4-1" value="&lt;font style=&quot;font-size: 16px&quot;&gt;Сырный Учёт&lt;/font&gt;" style="rounded=0;whiteSpace=wrap;html=1;" vertex="1" parent="1">
          <mxGeometry x="350" y="30" width="196" height="70" as="geometry" />
        </mxCell>
        <mxCell id="UUQHCcC1c7Up3ryjeAP4-4" value="" style="edgeStyle=orthogonalEdgeStyle;rounded=0;orthogonalLoop=1;jettySize=auto;html=1;" edge="1" parent="1" source="UUQHCcC1c7Up3ryjeAP4-2" target="UUQHCcC1c7Up3ryjeAP4-3">
          <mxGeometry relative="1" as="geometry" />
        </mxCell>
        <mxCell id="UUQHCcC1c7Up3ryjeAP4-6" value="" style="edgeStyle=orthogonalEdgeStyle;rounded=0;orthogonalLoop=1;jettySize=auto;html=1;" edge="1" parent="1" source="UUQHCcC1c7Up3ryjeAP4-2" target="UUQHCcC1c7Up3ryjeAP4-5">
          <mxGeometry relative="1" as="geometry" />
        </mxCell>
        <mxCell id="UUQHCcC1c7Up3ryjeAP4-2" value="Мобиьное" style="rounded=1;whiteSpace=wrap;html=1;" vertex="1" parent="1">
          <mxGeometry x="270" y="140" width="120" height="60" as="geometry" />
        </mxCell>
        <mxCell id="UUQHCcC1c7Up3ryjeAP4-3" value="андроид" style="whiteSpace=wrap;html=1;rounded=1;" vertex="1" parent="1">
          <mxGeometry x="270" y="280" width="120" height="60" as="geometry" />
        </mxCell>
        <mxCell id="UUQHCcC1c7Up3ryjeAP4-5" value="IOS" style="whiteSpace=wrap;html=1;rounded=1;" vertex="1" parent="1">
          <mxGeometry x="80" y="140" width="120" height="60" as="geometry" />
        </mxCell>
        <mxCell id="UUQHCcC1c7Up3ryjeAP4-10" value="" style="edgeStyle=orthogonalEdgeStyle;rounded=0;orthogonalLoop=1;jettySize=auto;html=1;" edge="1" parent="1" source="UUQHCcC1c7Up3ryjeAP4-7" target="UUQHCcC1c7Up3ryjeAP4-9">
          <mxGeometry relative="1" as="geometry" />
        </mxCell>
        <mxCell id="UUQHCcC1c7Up3ryjeAP4-12" value="" style="edgeStyle=orthogonalEdgeStyle;rounded=0;orthogonalLoop=1;jettySize=auto;html=1;" edge="1" parent="1" source="UUQHCcC1c7Up3ryjeAP4-7" target="UUQHCcC1c7Up3ryjeAP4-11">
          <mxGeometry relative="1" as="geometry" />
        </mxCell>
        <mxCell id="UUQHCcC1c7Up3ryjeAP4-13" style="edgeStyle=orthogonalEdgeStyle;rounded=0;orthogonalLoop=1;jettySize=auto;html=1;exitX=1;exitY=1;exitDx=0;exitDy=0;entryX=0.57;entryY=-0.042;entryDx=0;entryDy=0;entryPerimeter=0;" edge="1" parent="1" source="UUQHCcC1c7Up3ryjeAP4-7" target="UUQHCcC1c7Up3ryjeAP4-14">
          <mxGeometry relative="1" as="geometry">
            <mxPoint x="770" y="260" as="targetPoint" />
          </mxGeometry>
        </mxCell>
        <mxCell id="UUQHCcC1c7Up3ryjeAP4-7" value="Десктопное" style="rounded=1;whiteSpace=wrap;html=1;" vertex="1" parent="1">
          <mxGeometry x="510" y="140" width="120" height="60" as="geometry" />
        </mxCell>
        <mxCell id="UUQHCcC1c7Up3ryjeAP4-9" value="Linux" style="whiteSpace=wrap;html=1;rounded=1;" vertex="1" parent="1">
          <mxGeometry x="510" y="280" width="120" height="60" as="geometry" />
        </mxCell>
        <mxCell id="UUQHCcC1c7Up3ryjeAP4-11" value="Windows" style="whiteSpace=wrap;html=1;rounded=1;" vertex="1" parent="1">
          <mxGeometry x="710" y="140" width="120" height="60" as="geometry" />
        </mxCell>
        <mxCell id="UUQHCcC1c7Up3ryjeAP4-14" value="MacOS" style="rounded=1;whiteSpace=wrap;html=1;" vertex="1" parent="1">
          <mxGeometry x="680" y="280" width="120" height="60" as="geometry" />
        </mxCell>
        <mxCell id="UUQHCcC1c7Up3ryjeAP4-15" value="" style="endArrow=none;html=1;" edge="1" parent="1">
          <mxGeometry width="50" height="50" relative="1" as="geometry">
            <mxPoint y="480" as="sourcePoint" />
            <mxPoint x="1120" y="480" as="targetPoint" />
          </mxGeometry>
        </mxCell>
        <mxCell id="UUQHCcC1c7Up3ryjeAP4-18" value="" style="endArrow=none;html=1;" edge="1" parent="1">
          <mxGeometry width="50" height="50" relative="1" as="geometry">
            <mxPoint x="160" y="840" as="sourcePoint" />
            <mxPoint x="160" y="480" as="targetPoint" />
          </mxGeometry>
        </mxCell>
        <mxCell id="UUQHCcC1c7Up3ryjeAP4-19" value="" style="endArrow=none;html=1;" edge="1" parent="1">
          <mxGeometry width="50" height="50" relative="1" as="geometry">
            <mxPoint x="480" y="839.9999999999998" as="sourcePoint" />
            <mxPoint x="480" y="480" as="targetPoint" />
          </mxGeometry>
        </mxCell>
        <mxCell id="UUQHCcC1c7Up3ryjeAP4-20" value="" style="endArrow=none;html=1;" edge="1" parent="1">
          <mxGeometry width="50" height="50" relative="1" as="geometry">
            <mxPoint x="320" y="839.9999999999998" as="sourcePoint" />
            <mxPoint x="320" y="480" as="targetPoint" />
          </mxGeometry>
        </mxCell>
        <mxCell id="UUQHCcC1c7Up3ryjeAP4-21" value="" style="endArrow=none;html=1;" edge="1" parent="1">
          <mxGeometry width="50" height="50" relative="1" as="geometry">
            <mxPoint x="800" y="839.9999999999998" as="sourcePoint" />
            <mxPoint x="800" y="480" as="targetPoint" />
          </mxGeometry>
        </mxCell>
        <mxCell id="UUQHCcC1c7Up3ryjeAP4-22" value="" style="endArrow=none;html=1;" edge="1" parent="1">
          <mxGeometry width="50" height="50" relative="1" as="geometry">
            <mxPoint x="640" y="839.9999999999998" as="sourcePoint" />
            <mxPoint x="640" y="480" as="targetPoint" />
          </mxGeometry>
        </mxCell>
        <mxCell id="UUQHCcC1c7Up3ryjeAP4-23" value="" style="endArrow=none;html=1;" edge="1" parent="1">
          <mxGeometry width="50" height="50" relative="1" as="geometry">
            <mxPoint y="520" as="sourcePoint" />
            <mxPoint x="1120" y="520" as="targetPoint" />
          </mxGeometry>
        </mxCell>
        <mxCell id="UUQHCcC1c7Up3ryjeAP4-24" value="06.2021" style="text;html=1;align=center;verticalAlign=middle;resizable=0;points=[];autosize=1;strokeColor=none;fillColor=none;" vertex="1" parent="1">
          <mxGeometry x="210" y="490" width="60" height="20" as="geometry" />
        </mxCell>
        <mxCell id="UUQHCcC1c7Up3ryjeAP4-25" value="07.2021" style="text;html=1;align=center;verticalAlign=middle;resizable=0;points=[];autosize=1;strokeColor=none;fillColor=none;" vertex="1" parent="1">
          <mxGeometry x="370" y="490" width="60" height="20" as="geometry" />
        </mxCell>
        <mxCell id="UUQHCcC1c7Up3ryjeAP4-26" value="05.2021" style="text;html=1;align=center;verticalAlign=middle;resizable=0;points=[];autosize=1;strokeColor=none;fillColor=none;" vertex="1" parent="1">
          <mxGeometry x="50" y="490" width="60" height="20" as="geometry" />
        </mxCell>
        <mxCell id="UUQHCcC1c7Up3ryjeAP4-27" value="08.2021" style="text;html=1;align=center;verticalAlign=middle;resizable=0;points=[];autosize=1;strokeColor=none;fillColor=none;" vertex="1" parent="1">
          <mxGeometry x="530" y="490" width="60" height="20" as="geometry" />
        </mxCell>
        <mxCell id="UUQHCcC1c7Up3ryjeAP4-28" value="09.2021" style="text;html=1;align=center;verticalAlign=middle;resizable=0;points=[];autosize=1;strokeColor=none;fillColor=none;" vertex="1" parent="1">
          <mxGeometry x="690" y="490" width="60" height="20" as="geometry" />
        </mxCell>
        <mxCell id="UUQHCcC1c7Up3ryjeAP4-29" value="Андроид" style="rounded=1;whiteSpace=wrap;html=1;" vertex="1" parent="1">
          <mxGeometry x="20" y="560" width="280" height="30" as="geometry" />
        </mxCell>
        <mxCell id="UUQHCcC1c7Up3ryjeAP4-30" value="Айфон" style="rounded=1;whiteSpace=wrap;html=1;" vertex="1" parent="1">
          <mxGeometry x="120" y="630" width="210" height="30" as="geometry" />
        </mxCell>
        <mxCell id="UUQHCcC1c7Up3ryjeAP4-31" value="Linux" style="rounded=1;whiteSpace=wrap;html=1;" vertex="1" parent="1">
          <mxGeometry x="370" y="560" width="380" height="30" as="geometry" />
        </mxCell>
        <mxCell id="UUQHCcC1c7Up3ryjeAP4-32" value="MacOS" style="rounded=1;whiteSpace=wrap;html=1;" vertex="1" parent="1">
          <mxGeometry x="370" y="630" width="300" height="30" as="geometry" />
        </mxCell>
        <mxCell id="UUQHCcC1c7Up3ryjeAP4-36" value="" style="endArrow=none;html=1;" edge="1" parent="1">
          <mxGeometry width="50" height="50" relative="1" as="geometry">
            <mxPoint x="1120" y="839.9999999999998" as="sourcePoint" />
            <mxPoint x="1120" y="480" as="targetPoint" />
          </mxGeometry>
        </mxCell>
        <mxCell id="UUQHCcC1c7Up3ryjeAP4-37" value="" style="endArrow=none;html=1;" edge="1" parent="1">
          <mxGeometry width="50" height="50" relative="1" as="geometry">
            <mxPoint x="960" y="839.9999999999998" as="sourcePoint" />
            <mxPoint x="960" y="480" as="targetPoint" />
          </mxGeometry>
        </mxCell>
        <mxCell id="UUQHCcC1c7Up3ryjeAP4-38" value="11.2021" style="text;html=1;align=center;verticalAlign=middle;resizable=0;points=[];autosize=1;strokeColor=none;fillColor=none;" vertex="1" parent="1">
          <mxGeometry x="1010" y="490" width="60" height="20" as="geometry" />
        </mxCell>
        <mxCell id="UUQHCcC1c7Up3ryjeAP4-39" value="10.2021" style="text;html=1;align=center;verticalAlign=middle;resizable=0;points=[];autosize=1;strokeColor=none;fillColor=none;" vertex="1" parent="1">
          <mxGeometry x="850" y="490" width="60" height="20" as="geometry" />
        </mxCell>
        <mxCell id="UUQHCcC1c7Up3ryjeAP4-40" value="Windows" style="rounded=1;whiteSpace=wrap;html=1;" vertex="1" parent="1">
          <mxGeometry x="680" y="630" width="430" height="30" as="geometry" />
        </mxCell>
        <mxCell id="UUQHCcC1c7Up3ryjeAP4-41" value="" style="endArrow=none;html=1;" edge="1" parent="1">
          <mxGeometry width="50" height="50" relative="1" as="geometry">
            <mxPoint x="120" y="1080" as="sourcePoint" />
            <mxPoint x="120" y="920" as="targetPoint" />
          </mxGeometry>
        </mxCell>
        <mxCell id="UUQHCcC1c7Up3ryjeAP4-42" value="" style="endArrow=none;html=1;" edge="1" parent="1">
          <mxGeometry width="50" height="50" relative="1" as="geometry">
            <mxPoint x="239" y="1080" as="sourcePoint" />
            <mxPoint x="239.41" y="920" as="targetPoint" />
          </mxGeometry>
        </mxCell>
        <mxCell id="UUQHCcC1c7Up3ryjeAP4-43" value="06.2021" style="text;html=1;align=center;verticalAlign=middle;resizable=0;points=[];autosize=1;strokeColor=none;fillColor=none;" vertex="1" parent="1">
          <mxGeometry x="150" y="930" width="60" height="20" as="geometry" />
        </mxCell>
        <mxCell id="UUQHCcC1c7Up3ryjeAP4-44" value="05.2021" style="text;html=1;align=center;verticalAlign=middle;resizable=0;points=[];autosize=1;strokeColor=none;fillColor=none;" vertex="1" parent="1">
          <mxGeometry x="30" y="930" width="60" height="20" as="geometry" />
        </mxCell>
        <mxCell id="UUQHCcC1c7Up3ryjeAP4-45" value="Андроид" style="rounded=1;whiteSpace=wrap;html=1;" vertex="1" parent="1">
          <mxGeometry x="290" y="880" width="280" height="30" as="geometry" />
        </mxCell>
        <mxCell id="UUQHCcC1c7Up3ryjeAP4-47" value="" style="endArrow=none;dashed=1;html=1;" edge="1" parent="1">
          <mxGeometry width="50" height="50" relative="1" as="geometry">
            <mxPoint y="960" as="sourcePoint" />
            <mxPoint x="240" y="960" as="targetPoint" />
          </mxGeometry>
        </mxCell>
        <mxCell id="UUQHCcC1c7Up3ryjeAP4-52" value="" style="endArrow=none;html=1;" edge="1" parent="1">
          <mxGeometry width="50" height="50" relative="1" as="geometry">
            <mxPoint x="360" y="1079.9999999999998" as="sourcePoint" />
            <mxPoint x="360" y="919.9999999999998" as="targetPoint" />
          </mxGeometry>
        </mxCell>
        <mxCell id="UUQHCcC1c7Up3ryjeAP4-53" value="" style="endArrow=none;html=1;" edge="1" parent="1">
          <mxGeometry width="50" height="50" relative="1" as="geometry">
            <mxPoint x="479" y="1079.9999999999998" as="sourcePoint" />
            <mxPoint x="479.4100000000001" y="919.9999999999998" as="targetPoint" />
          </mxGeometry>
        </mxCell>
        <mxCell id="UUQHCcC1c7Up3ryjeAP4-54" value="06.2021" style="text;html=1;align=center;verticalAlign=middle;resizable=0;points=[];autosize=1;strokeColor=none;fillColor=none;" vertex="1" parent="1">
          <mxGeometry x="390" y="930" width="60" height="20" as="geometry" />
        </mxCell>
        <mxCell id="UUQHCcC1c7Up3ryjeAP4-55" value="05.2021" style="text;html=1;align=center;verticalAlign=middle;resizable=0;points=[];autosize=1;strokeColor=none;fillColor=none;" vertex="1" parent="1">
          <mxGeometry x="270" y="930" width="60" height="20" as="geometry" />
        </mxCell>
        <mxCell id="UUQHCcC1c7Up3ryjeAP4-56" value="" style="endArrow=none;dashed=1;html=1;" edge="1" parent="1">
          <mxGeometry width="50" height="50" relative="1" as="geometry">
            <mxPoint x="240" y="959.9999999999998" as="sourcePoint" />
            <mxPoint x="480" y="959.9999999999998" as="targetPoint" />
          </mxGeometry>
        </mxCell>
        <mxCell id="UUQHCcC1c7Up3ryjeAP4-57" value="" style="endArrow=none;html=1;" edge="1" parent="1">
          <mxGeometry width="50" height="50" relative="1" as="geometry">
            <mxPoint x="600" y="1079.9999999999998" as="sourcePoint" />
            <mxPoint x="600" y="919.9999999999998" as="targetPoint" />
          </mxGeometry>
        </mxCell>
        <mxCell id="UUQHCcC1c7Up3ryjeAP4-58" value="" style="endArrow=none;html=1;" edge="1" parent="1">
          <mxGeometry width="50" height="50" relative="1" as="geometry">
            <mxPoint x="719" y="1079.9999999999998" as="sourcePoint" />
            <mxPoint x="719.4100000000001" y="919.9999999999998" as="targetPoint" />
          </mxGeometry>
        </mxCell>
        <mxCell id="UUQHCcC1c7Up3ryjeAP4-59" value="06.2021" style="text;html=1;align=center;verticalAlign=middle;resizable=0;points=[];autosize=1;strokeColor=none;fillColor=none;" vertex="1" parent="1">
          <mxGeometry x="630" y="930" width="60" height="20" as="geometry" />
        </mxCell>
        <mxCell id="UUQHCcC1c7Up3ryjeAP4-60" value="05.2021" style="text;html=1;align=center;verticalAlign=middle;resizable=0;points=[];autosize=1;strokeColor=none;fillColor=none;" vertex="1" parent="1">
          <mxGeometry x="510" y="930" width="60" height="20" as="geometry" />
        </mxCell>
        <mxCell id="UUQHCcC1c7Up3ryjeAP4-61" value="" style="endArrow=none;dashed=1;html=1;" edge="1" parent="1">
          <mxGeometry width="50" height="50" relative="1" as="geometry">
            <mxPoint x="480" y="959.9999999999998" as="sourcePoint" />
            <mxPoint x="720" y="959.9999999999998" as="targetPoint" />
          </mxGeometry>
        </mxCell>
        <mxCell id="UUQHCcC1c7Up3ryjeAP4-62" value="" style="endArrow=none;html=1;" edge="1" parent="1">
          <mxGeometry width="50" height="50" relative="1" as="geometry">
            <mxPoint x="840" y="1079.9999999999998" as="sourcePoint" />
            <mxPoint x="840" y="919.9999999999998" as="targetPoint" />
          </mxGeometry>
        </mxCell>
        <mxCell id="UUQHCcC1c7Up3ryjeAP4-63" value="" style="endArrow=none;html=1;" edge="1" parent="1">
          <mxGeometry width="50" height="50" relative="1" as="geometry">
            <mxPoint x="959" y="1079.9999999999998" as="sourcePoint" />
            <mxPoint x="959.4100000000001" y="919.9999999999998" as="targetPoint" />
          </mxGeometry>
        </mxCell>
        <mxCell id="UUQHCcC1c7Up3ryjeAP4-64" value="06.2021" style="text;html=1;align=center;verticalAlign=middle;resizable=0;points=[];autosize=1;strokeColor=none;fillColor=none;" vertex="1" parent="1">
          <mxGeometry x="870" y="930" width="60" height="20" as="geometry" />
        </mxCell>
        <mxCell id="UUQHCcC1c7Up3ryjeAP4-65" value="05.2021" style="text;html=1;align=center;verticalAlign=middle;resizable=0;points=[];autosize=1;strokeColor=none;fillColor=none;" vertex="1" parent="1">
          <mxGeometry x="750" y="930" width="60" height="20" as="geometry" />
        </mxCell>
        <mxCell id="UUQHCcC1c7Up3ryjeAP4-66" value="" style="endArrow=none;dashed=1;html=1;" edge="1" parent="1">
          <mxGeometry width="50" height="50" relative="1" as="geometry">
            <mxPoint x="720" y="959.9999999999998" as="sourcePoint" />
            <mxPoint x="960" y="959.9999999999998" as="targetPoint" />
          </mxGeometry>
        </mxCell>
        <mxCell id="UUQHCcC1c7Up3ryjeAP4-67" value="" style="endArrow=none;html=1;" edge="1" parent="1">
          <mxGeometry width="50" height="50" relative="1" as="geometry">
            <mxPoint x="120" y="1319.9999999999998" as="sourcePoint" />
            <mxPoint x="120" y="1159.9999999999998" as="targetPoint" />
          </mxGeometry>
        </mxCell>
        <mxCell id="UUQHCcC1c7Up3ryjeAP4-68" value="" style="endArrow=none;html=1;" edge="1" parent="1">
          <mxGeometry width="50" height="50" relative="1" as="geometry">
            <mxPoint x="239" y="1319.9999999999998" as="sourcePoint" />
            <mxPoint x="239.41000000000008" y="1159.9999999999998" as="targetPoint" />
          </mxGeometry>
        </mxCell>
        <mxCell id="UUQHCcC1c7Up3ryjeAP4-69" value="06.2021" style="text;html=1;align=center;verticalAlign=middle;resizable=0;points=[];autosize=1;strokeColor=none;fillColor=none;" vertex="1" parent="1">
          <mxGeometry x="150" y="1170" width="60" height="20" as="geometry" />
        </mxCell>
        <mxCell id="UUQHCcC1c7Up3ryjeAP4-70" value="05.2021" style="text;html=1;align=center;verticalAlign=middle;resizable=0;points=[];autosize=1;strokeColor=none;fillColor=none;" vertex="1" parent="1">
          <mxGeometry x="30" y="1170" width="60" height="20" as="geometry" />
        </mxCell>
        <mxCell id="UUQHCcC1c7Up3ryjeAP4-71" value="" style="endArrow=none;dashed=1;html=1;" edge="1" parent="1">
          <mxGeometry width="50" height="50" relative="1" as="geometry">
            <mxPoint y="1199.9999999999998" as="sourcePoint" />
            <mxPoint x="240" y="1199.9999999999998" as="targetPoint" />
          </mxGeometry>
        </mxCell>
        <mxCell id="UUQHCcC1c7Up3ryjeAP4-72" value="" style="endArrow=none;html=1;" edge="1" parent="1">
          <mxGeometry width="50" height="50" relative="1" as="geometry">
            <mxPoint x="360" y="1320" as="sourcePoint" />
            <mxPoint x="360" y="1159.9999999999998" as="targetPoint" />
          </mxGeometry>
        </mxCell>
        <mxCell id="UUQHCcC1c7Up3ryjeAP4-73" value="" style="endArrow=none;html=1;" edge="1" parent="1">
          <mxGeometry width="50" height="50" relative="1" as="geometry">
            <mxPoint x="479" y="1320" as="sourcePoint" />
            <mxPoint x="479.4100000000001" y="1159.9999999999998" as="targetPoint" />
          </mxGeometry>
        </mxCell>
        <mxCell id="UUQHCcC1c7Up3ryjeAP4-74" value="06.2021" style="text;html=1;align=center;verticalAlign=middle;resizable=0;points=[];autosize=1;strokeColor=none;fillColor=none;" vertex="1" parent="1">
          <mxGeometry x="390" y="1170" width="60" height="20" as="geometry" />
        </mxCell>
        <mxCell id="UUQHCcC1c7Up3ryjeAP4-75" value="05.2021" style="text;html=1;align=center;verticalAlign=middle;resizable=0;points=[];autosize=1;strokeColor=none;fillColor=none;" vertex="1" parent="1">
          <mxGeometry x="270" y="1170" width="60" height="20" as="geometry" />
        </mxCell>
        <mxCell id="UUQHCcC1c7Up3ryjeAP4-76" value="" style="endArrow=none;dashed=1;html=1;" edge="1" parent="1">
          <mxGeometry width="50" height="50" relative="1" as="geometry">
            <mxPoint x="240" y="1199.9999999999998" as="sourcePoint" />
            <mxPoint x="480" y="1199.9999999999998" as="targetPoint" />
          </mxGeometry>
        </mxCell>
        <mxCell id="UUQHCcC1c7Up3ryjeAP4-77" value="" style="endArrow=none;html=1;" edge="1" parent="1">
          <mxGeometry width="50" height="50" relative="1" as="geometry">
            <mxPoint x="600" y="1320" as="sourcePoint" />
            <mxPoint x="600" y="1159.9999999999998" as="targetPoint" />
          </mxGeometry>
        </mxCell>
        <mxCell id="UUQHCcC1c7Up3ryjeAP4-78" value="" style="endArrow=none;html=1;" edge="1" parent="1">
          <mxGeometry width="50" height="50" relative="1" as="geometry">
            <mxPoint x="719" y="1320" as="sourcePoint" />
            <mxPoint x="719.4100000000001" y="1159.9999999999998" as="targetPoint" />
          </mxGeometry>
        </mxCell>
        <mxCell id="UUQHCcC1c7Up3ryjeAP4-79" value="06.2021" style="text;html=1;align=center;verticalAlign=middle;resizable=0;points=[];autosize=1;strokeColor=none;fillColor=none;" vertex="1" parent="1">
          <mxGeometry x="630" y="1170" width="60" height="20" as="geometry" />
        </mxCell>
        <mxCell id="UUQHCcC1c7Up3ryjeAP4-80" value="05.2021" style="text;html=1;align=center;verticalAlign=middle;resizable=0;points=[];autosize=1;strokeColor=none;fillColor=none;" vertex="1" parent="1">
          <mxGeometry x="510" y="1170" width="60" height="20" as="geometry" />
        </mxCell>
        <mxCell id="UUQHCcC1c7Up3ryjeAP4-81" value="" style="endArrow=none;dashed=1;html=1;" edge="1" parent="1">
          <mxGeometry width="50" height="50" relative="1" as="geometry">
            <mxPoint x="480" y="1199.9999999999998" as="sourcePoint" />
            <mxPoint x="720" y="1199.9999999999998" as="targetPoint" />
          </mxGeometry>
        </mxCell>
        <mxCell id="UUQHCcC1c7Up3ryjeAP4-82" value="" style="endArrow=none;html=1;" edge="1" parent="1">
          <mxGeometry width="50" height="50" relative="1" as="geometry">
            <mxPoint x="120" y="1580" as="sourcePoint" />
            <mxPoint x="120" y="1419.9999999999998" as="targetPoint" />
          </mxGeometry>
        </mxCell>
        <mxCell id="UUQHCcC1c7Up3ryjeAP4-83" value="" style="endArrow=none;html=1;" edge="1" parent="1">
          <mxGeometry width="50" height="50" relative="1" as="geometry">
            <mxPoint x="239" y="1580" as="sourcePoint" />
            <mxPoint x="239.41000000000008" y="1419.9999999999998" as="targetPoint" />
          </mxGeometry>
        </mxCell>
        <mxCell id="UUQHCcC1c7Up3ryjeAP4-84" value="06.2021" style="text;html=1;align=center;verticalAlign=middle;resizable=0;points=[];autosize=1;strokeColor=none;fillColor=none;" vertex="1" parent="1">
          <mxGeometry x="150" y="1430" width="60" height="20" as="geometry" />
        </mxCell>
        <mxCell id="UUQHCcC1c7Up3ryjeAP4-85" value="05.2021" style="text;html=1;align=center;verticalAlign=middle;resizable=0;points=[];autosize=1;strokeColor=none;fillColor=none;" vertex="1" parent="1">
          <mxGeometry x="30" y="1430" width="60" height="20" as="geometry" />
        </mxCell>
        <mxCell id="UUQHCcC1c7Up3ryjeAP4-86" value="" style="endArrow=none;dashed=1;html=1;" edge="1" parent="1">
          <mxGeometry width="50" height="50" relative="1" as="geometry">
            <mxPoint y="1459.9999999999998" as="sourcePoint" />
            <mxPoint x="240" y="1459.9999999999998" as="targetPoint" />
          </mxGeometry>
        </mxCell>
        <mxCell id="UUQHCcC1c7Up3ryjeAP4-88" value="" style="endArrow=none;html=1;" edge="1" parent="1">
          <mxGeometry width="50" height="50" relative="1" as="geometry">
            <mxPoint x="240" y="1580" as="sourcePoint" />
            <mxPoint x="240.41000000000008" y="1419.9999999999998" as="targetPoint" />
          </mxGeometry>
        </mxCell>
        <mxCell id="UUQHCcC1c7Up3ryjeAP4-89" value="" style="endArrow=none;html=1;" edge="1" parent="1">
          <mxGeometry width="50" height="50" relative="1" as="geometry">
            <mxPoint x="361" y="1580" as="sourcePoint" />
            <mxPoint x="361" y="1419.9999999999998" as="targetPoint" />
          </mxGeometry>
        </mxCell>
        <mxCell id="UUQHCcC1c7Up3ryjeAP4-90" value="" style="endArrow=none;html=1;" edge="1" parent="1">
          <mxGeometry width="50" height="50" relative="1" as="geometry">
            <mxPoint x="480" y="1580" as="sourcePoint" />
            <mxPoint x="480.4100000000001" y="1419.9999999999998" as="targetPoint" />
          </mxGeometry>
        </mxCell>
        <mxCell id="UUQHCcC1c7Up3ryjeAP4-91" value="06.2021" style="text;html=1;align=center;verticalAlign=middle;resizable=0;points=[];autosize=1;strokeColor=none;fillColor=none;" vertex="1" parent="1">
          <mxGeometry x="391" y="1430" width="60" height="20" as="geometry" />
        </mxCell>
        <mxCell id="UUQHCcC1c7Up3ryjeAP4-92" value="05.2021" style="text;html=1;align=center;verticalAlign=middle;resizable=0;points=[];autosize=1;strokeColor=none;fillColor=none;" vertex="1" parent="1">
          <mxGeometry x="271" y="1430" width="60" height="20" as="geometry" />
        </mxCell>
        <mxCell id="UUQHCcC1c7Up3ryjeAP4-93" value="" style="endArrow=none;dashed=1;html=1;" edge="1" parent="1">
          <mxGeometry width="50" height="50" relative="1" as="geometry">
            <mxPoint x="241" y="1459.9999999999998" as="sourcePoint" />
            <mxPoint x="481" y="1459.9999999999998" as="targetPoint" />
          </mxGeometry>
        </mxCell>
        <mxCell id="UUQHCcC1c7Up3ryjeAP4-94" value="" style="endArrow=none;html=1;" edge="1" parent="1">
          <mxGeometry width="50" height="50" relative="1" as="geometry">
            <mxPoint x="601" y="1580" as="sourcePoint" />
            <mxPoint x="601" y="1419.9999999999998" as="targetPoint" />
          </mxGeometry>
        </mxCell>
        <mxCell id="UUQHCcC1c7Up3ryjeAP4-95" value="" style="endArrow=none;html=1;" edge="1" parent="1">
          <mxGeometry width="50" height="50" relative="1" as="geometry">
            <mxPoint x="720" y="1580" as="sourcePoint" />
            <mxPoint x="720.4100000000001" y="1419.9999999999998" as="targetPoint" />
          </mxGeometry>
        </mxCell>
        <mxCell id="UUQHCcC1c7Up3ryjeAP4-96" value="06.2021" style="text;html=1;align=center;verticalAlign=middle;resizable=0;points=[];autosize=1;strokeColor=none;fillColor=none;" vertex="1" parent="1">
          <mxGeometry x="631" y="1430" width="60" height="20" as="geometry" />
        </mxCell>
        <mxCell id="UUQHCcC1c7Up3ryjeAP4-97" value="05.2021" style="text;html=1;align=center;verticalAlign=middle;resizable=0;points=[];autosize=1;strokeColor=none;fillColor=none;" vertex="1" parent="1">
          <mxGeometry x="511" y="1430" width="60" height="20" as="geometry" />
        </mxCell>
        <mxCell id="UUQHCcC1c7Up3ryjeAP4-98" value="" style="endArrow=none;dashed=1;html=1;" edge="1" parent="1">
          <mxGeometry width="50" height="50" relative="1" as="geometry">
            <mxPoint x="700" y="1459.9999999999998" as="sourcePoint" />
            <mxPoint x="940" y="1459.9999999999998" as="targetPoint" />
          </mxGeometry>
        </mxCell>
        <mxCell id="UUQHCcC1c7Up3ryjeAP4-104" value="" style="endArrow=none;html=1;" edge="1" parent="1">
          <mxGeometry width="50" height="50" relative="1" as="geometry">
            <mxPoint x="820" y="1580" as="sourcePoint" />
            <mxPoint x="820" y="1420" as="targetPoint" />
          </mxGeometry>
        </mxCell>
        <mxCell id="UUQHCcC1c7Up3ryjeAP4-105" value="" style="endArrow=none;html=1;" edge="1" parent="1">
          <mxGeometry width="50" height="50" relative="1" as="geometry">
            <mxPoint x="939" y="1580" as="sourcePoint" />
            <mxPoint x="939.4100000000001" y="1420" as="targetPoint" />
          </mxGeometry>
        </mxCell>
        <mxCell id="UUQHCcC1c7Up3ryjeAP4-106" value="06.2021" style="text;html=1;align=center;verticalAlign=middle;resizable=0;points=[];autosize=1;strokeColor=none;fillColor=none;" vertex="1" parent="1">
          <mxGeometry x="850" y="1430" width="60" height="20" as="geometry" />
        </mxCell>
        <mxCell id="UUQHCcC1c7Up3ryjeAP4-107" value="05.2021" style="text;html=1;align=center;verticalAlign=middle;resizable=0;points=[];autosize=1;strokeColor=none;fillColor=none;" vertex="1" parent="1">
          <mxGeometry x="730" y="1430" width="60" height="20" as="geometry" />
        </mxCell>
        <mxCell id="UUQHCcC1c7Up3ryjeAP4-108" value="" style="endArrow=none;dashed=1;html=1;" edge="1" parent="1">
          <mxGeometry width="50" height="50" relative="1" as="geometry">
            <mxPoint x="480" y="1460" as="sourcePoint" />
            <mxPoint x="720" y="1460" as="targetPoint" />
            <Array as="points">
              <mxPoint x="599" y="1460" />
            </Array>
          </mxGeometry>
        </mxCell>
        <mxCell id="UUQHCcC1c7Up3ryjeAP4-109" value="" style="endArrow=none;html=1;" edge="1" parent="1">
          <mxGeometry width="50" height="50" relative="1" as="geometry">
            <mxPoint x="940" y="1580" as="sourcePoint" />
            <mxPoint x="940" y="1420" as="targetPoint" />
          </mxGeometry>
        </mxCell>
        <mxCell id="UUQHCcC1c7Up3ryjeAP4-110" value="" style="endArrow=none;html=1;" edge="1" parent="1">
          <mxGeometry width="50" height="50" relative="1" as="geometry">
            <mxPoint x="1059" y="1580" as="sourcePoint" />
            <mxPoint x="1059.41" y="1420" as="targetPoint" />
          </mxGeometry>
        </mxCell>
        <mxCell id="UUQHCcC1c7Up3ryjeAP4-111" value="06.2021" style="text;html=1;align=center;verticalAlign=middle;resizable=0;points=[];autosize=1;strokeColor=none;fillColor=none;" vertex="1" parent="1">
          <mxGeometry x="970" y="1430" width="60" height="20" as="geometry" />
        </mxCell>
        <mxCell id="UUQHCcC1c7Up3ryjeAP4-112" value="" style="endArrow=none;dashed=1;html=1;" edge="1" parent="1">
          <mxGeometry width="50" height="50" relative="1" as="geometry">
            <mxPoint x="1039" y="1460" as="sourcePoint" />
            <mxPoint x="1279" y="1460" as="targetPoint" />
          </mxGeometry>
        </mxCell>
        <mxCell id="UUQHCcC1c7Up3ryjeAP4-113" value="" style="endArrow=none;html=1;" edge="1" parent="1">
          <mxGeometry width="50" height="50" relative="1" as="geometry">
            <mxPoint x="1159" y="1580" as="sourcePoint" />
            <mxPoint x="1159" y="1420" as="targetPoint" />
          </mxGeometry>
        </mxCell>
        <mxCell id="UUQHCcC1c7Up3ryjeAP4-114" value="" style="endArrow=none;html=1;" edge="1" parent="1">
          <mxGeometry width="50" height="50" relative="1" as="geometry">
            <mxPoint x="1278" y="1580" as="sourcePoint" />
            <mxPoint x="1278.41" y="1420" as="targetPoint" />
          </mxGeometry>
        </mxCell>
        <mxCell id="UUQHCcC1c7Up3ryjeAP4-115" value="06.2021" style="text;html=1;align=center;verticalAlign=middle;resizable=0;points=[];autosize=1;strokeColor=none;fillColor=none;" vertex="1" parent="1">
          <mxGeometry x="1189" y="1430" width="60" height="20" as="geometry" />
        </mxCell>
        <mxCell id="UUQHCcC1c7Up3ryjeAP4-116" value="05.2021" style="text;html=1;align=center;verticalAlign=middle;resizable=0;points=[];autosize=1;strokeColor=none;fillColor=none;" vertex="1" parent="1">
          <mxGeometry x="1069" y="1430" width="60" height="20" as="geometry" />
        </mxCell>
        <mxCell id="UUQHCcC1c7Up3ryjeAP4-117" value="" style="endArrow=none;dashed=1;html=1;" edge="1" parent="1">
          <mxGeometry width="50" height="50" relative="1" as="geometry">
            <mxPoint x="870" y="1460" as="sourcePoint" />
            <mxPoint x="1110" y="1460" as="targetPoint" />
          </mxGeometry>
        </mxCell>
      </root>
    </mxGraphModel>
  </diagram>
</mxfile>
